# Blender v2.75 (sub 0) OBJ File: 'barrier.blend'
# www.blender.org
mtllib barrier.mtl
o barrier.002_Cube.003
v 2.293231 0.129748 2.209246
v 2.293231 0.129748 -2.217647
v 3.710159 0.129748 -2.217647
v 3.710159 0.129748 2.209246
v 2.796616 1.348598 1.655118
v 2.796616 1.348598 -1.663519
v 3.206774 1.348598 -1.663519
v 3.206774 1.348598 1.655118
v 2.722866 0.514859 1.783922
v 2.722866 0.514859 -1.792322
v 3.280524 0.514859 -1.792322
v 3.280524 0.514859 1.783922
v 2.293231 0.017586 2.209246
v 2.293231 0.017586 -2.217647
v 3.710159 0.017586 -2.217647
v 3.710159 0.017586 2.209246
vt 0.631066 0.129282
vt 0.217235 0.129282
vt 0.168018 0.040154
vt 0.680283 0.040154
vt 0.958018 0.101346
vt 0.907448 0.102537
vt 0.878230 0.030913
vt 0.987963 0.030913
vt 0.878230 0.009374
vt 0.987963 0.009374
vt 0.164469 0.133843
vt 0.718344 0.133843
vt 0.718344 0.270752
vt 0.164469 0.270752
vt 0.952955 0.340296
vt 0.915060 0.339700
vt 0.616161 0.322237
vt 0.232140 0.322237
vt 0.168018 0.014196
vt 0.680283 0.014196
vn -0.524500 0.660900 0.536700
vn -0.524500 0.660900 -0.536700
vn -0.646000 0.407400 -0.645500
vn -0.646000 0.407400 0.645500
vn 0.524500 0.660900 -0.536700
vn 0.646000 0.407400 -0.645500
vn 0.524500 0.660900 0.536700
vn 0.646000 0.407400 0.645500
vn -0.707100 0.000000 0.707100
vn 0.707100 0.000000 0.707100
vn 0.555900 0.639800 0.530600
vn 0.555900 0.639800 -0.530600
vn -0.555900 0.639800 -0.530600
vn -0.555900 0.639800 0.530600
vn 0.707100 0.000000 -0.707100
vn -0.707100 0.000000 -0.707100
usemtl barrier
s 1
f 9/1/1 10/2/2 2/3/3 1/4/4
f 10/5/2 11/6/5 3/7/6 2/8/3
f 11/1/5 12/2/7 4/3/8 3/4/6
f 12/5/7 9/6/1 1/7/4 4/8/8
f 4/8/8 1/7/4 13/9/9 16/10/10
f 8/11/11 7/12/12 6/13/13 5/14/14
f 8/15/11 5/16/14 9/6/1 12/5/7
f 7/17/12 8/18/11 12/2/7 11/1/5
f 6/15/13 7/16/12 11/6/5 10/5/2
f 5/17/14 6/18/13 10/2/2 9/1/1
f 3/4/6 4/3/8 16/19/10 15/20/15
f 2/8/3 3/7/6 15/9/15 14/10/16
f 1/4/4 2/3/3 14/19/16 13/20/9
o barrier.001_Cube.002
v -0.700352 0.129748 2.224510
v -0.700352 0.129748 -2.202382
v 0.716575 0.129748 -2.202382
v 0.716575 0.129748 2.224510
v -0.196968 1.348598 1.670383
v -0.196968 1.348598 -1.648255
v 0.213191 1.348598 -1.648255
v 0.213191 1.348598 1.670383
v -0.270718 0.514859 1.799186
v -0.270718 0.514859 -1.777058
v 0.286941 0.514859 -1.777058
v 0.286941 0.514859 1.799186
v -0.700352 0.017586 2.224510
v -0.700352 0.017586 -2.202382
v 0.716575 0.017586 -2.202382
v 0.716575 0.017586 2.224510
vt 0.631066 0.462742
vt 0.217235 0.462742
vt 0.168018 0.373615
vt 0.680283 0.373615
vt 0.956517 0.434806
vt 0.905948 0.435997
vt 0.877854 0.370376
vt 0.987588 0.370376
vt 0.877854 0.348836
vt 0.987588 0.348836
vt 0.243591 0.509588
vt 0.614614 0.509588
vt 0.614614 0.601300
vt 0.243591 0.601300
vt 0.950329 0.661002
vt 0.912434 0.660407
vt 0.616161 0.655697
vt 0.232140 0.655697
vt 0.168018 0.347657
vt 0.680283 0.347657
vn -0.524500 0.660900 0.536700
vn -0.524500 0.660900 -0.536700
vn -0.646000 0.407400 -0.645500
vn -0.646000 0.407400 0.645500
vn 0.524500 0.660900 -0.536700
vn 0.646000 0.407400 -0.645500
vn 0.524500 0.660900 0.536700
vn 0.646000 0.407400 0.645500
vn -0.707100 0.000000 0.707100
vn 0.707100 0.000000 0.707100
vn 0.555900 0.639800 0.530600
vn 0.555900 0.639800 -0.530600
vn -0.555900 0.639800 -0.530600
vn -0.555900 0.639800 0.530600
vn 0.707100 0.000000 -0.707100
vn -0.707100 0.000000 -0.707100
usemtl barrier
s 1
f 25/21/17 26/22/18 18/23/19 17/24/20
f 26/25/18 27/26/21 19/27/22 18/28/19
f 27/21/21 28/22/23 20/23/24 19/24/22
f 28/25/23 25/26/17 17/27/20 20/28/24
f 20/28/24 17/27/20 29/29/25 32/30/26
f 24/31/27 23/32/28 22/33/29 21/34/30
f 24/35/27 21/36/30 25/26/17 28/25/23
f 23/37/28 24/38/27 28/22/23 27/21/21
f 22/35/29 23/36/28 27/26/21 26/25/18
f 21/37/30 22/38/29 26/22/18 25/21/17
f 19/24/22 20/23/24 32/39/26 31/40/31
f 18/28/19 19/27/22 31/29/31 30/30/32
f 17/24/20 18/23/19 30/39/32 29/40/25
o barrier_Cube.001
v -3.953989 0.129748 2.230978
v -3.953989 0.129748 -2.195914
v -2.537061 0.129748 -2.195914
v -2.537061 0.129748 2.230978
v -3.450604 1.348598 1.676851
v -3.450604 1.348598 -1.641786
v -3.040446 1.348598 -1.641786
v -3.040446 1.348598 1.676851
v -3.524354 0.514859 1.805654
v -3.524354 0.514859 -1.770590
v -2.966696 0.514859 -1.770590
v -2.966696 0.514859 1.805654
v -3.953989 0.017586 2.230978
v -3.953989 0.017586 -2.195914
v -2.537061 0.017586 -2.195914
v -2.537061 0.017586 2.230978
vt 0.631066 0.796203
vt 0.217235 0.796203
vt 0.168018 0.707075
vt 0.680283 0.707075
vt 0.957411 0.760525
vt 0.903863 0.760525
vt 0.875770 0.686567
vt 0.985504 0.686567
vt 0.875770 0.665028
vt 0.985504 0.665028
vt 0.220074 0.820646
vt 0.652896 0.820646
vt 0.652896 0.927633
vt 0.220074 0.927633
vt 0.950329 0.994462
vt 0.910945 0.994462
vt 0.616161 0.989157
vt 0.232140 0.989157
vt 0.168018 0.681117
vt 0.680283 0.681117
vn -0.524500 0.660900 0.536700
vn -0.524500 0.660900 -0.536700
vn -0.646000 0.407400 -0.645500
vn -0.646000 0.407400 0.645500
vn 0.524500 0.660900 -0.536700
vn 0.646000 0.407400 -0.645500
vn 0.524500 0.660900 0.536700
vn 0.646000 0.407400 0.645500
vn -0.707100 0.000000 0.707100
vn 0.707100 0.000000 0.707100
vn 0.555900 0.639800 0.530600
vn 0.555900 0.639800 -0.530600
vn -0.555900 0.639800 -0.530600
vn -0.555900 0.639800 0.530600
vn 0.707100 0.000000 -0.707100
vn -0.707100 0.000000 -0.707100
usemtl barrier
s 1
f 41/41/33 42/42/34 34/43/35 33/44/36
f 42/45/34 43/46/37 35/47/38 34/48/35
f 43/41/37 44/42/39 36/43/40 35/44/38
f 44/45/39 41/46/33 33/47/36 36/48/40
f 36/48/40 33/47/36 45/49/41 48/50/42
f 40/51/43 39/52/44 38/53/45 37/54/46
f 40/55/43 37/56/46 41/46/33 44/45/39
f 39/57/44 40/58/43 44/42/39 43/41/37
f 38/55/45 39/56/44 43/46/37 42/45/34
f 37/57/46 38/58/45 42/42/34 41/41/33
f 35/44/38 36/43/40 48/59/42 47/60/47
f 34/48/35 35/47/38 47/49/47 46/50/48
f 33/44/36 34/43/35 46/59/48 45/60/41
